# xmcd CD database file
#
# Track frame offsets:
#	182
#	13620
#	25827
#	36860
#	48382
#	61090
#	74000
#	85577
#	98107
#	111322
#
# Disc length: 1623 seconds
#
# Revision: 0
# Processed by: cddbd v1.4PL0 Copyright (c) Steve Scherf et al.
# Submitted via: CDex 1.50beta9
#
DISCID=7c06550a
DTITLE=Little Milton - Who's Cheating Who
DYEAR=1991
DGENRE=Blues
TTITLE0=Who's Cheating Who
TTITLE1=Grits Ain't Groceries (All Around The World)
TTITLE2=Just A Little Bit
TTITLE3=I Play Dirty
TTITLE4=More And More
TTITLE5=Baby I Love You
TTITLE6=Can't Hold Back The Tears
TTITLE7=Poor Man
TTITLE8=Stand By Me
TTITLE9=Ain't No Big Deal On You
EXTD=YEAR: 1991
EXTT0=
EXTT1=
EXTT2=
EXTT3=
EXTT4=
EXTT5=
EXTT6=
EXTT7=
EXTT8=
EXTT9=
PLAYORDER=
